<?xml version="1.0" standalone="no"?>
<!DOCTYPE svg PUBLIC "-//W3C//DTD SVG 20010904//EN"
 "http://www.w3.org/TR/2001/REC-SVG-20010904/DTD/svg10.dtd">
<svg version="1.0" xmlns="http://www.w3.org/2000/svg"
 width="300.000000pt" height="167.000000pt" viewBox="0 0 300.000000 167.000000"
 preserveAspectRatio="xMidYMid meet">
<metadata>
Created by potrace 1.10, written by Peter Selinger 2001-2011
</metadata>
<g transform="translate(0.000000,167.000000) scale(0.100000,-0.100000)"
fill="#000000" stroke="none">
<path d="M700 1050 c-6 -74 3 -407 12 -417 15 -18 391 -19 406 0 6 7 12 84 14
185 l3 172 -32 0 c-31 0 -33 2 -33 33 l0 32 -185 0 c-102 0 -185 -2 -185 -5z
m337 -215 l2 -185 -155 0 -154 0 0 185 0 185 153 0 152 0 2 -185z m63 -30 c0
-131 -2 -155 -15 -155 -13 0 -15 24 -15 155 0 131 2 155 15 155 13 0 15 -24
15 -155z"/>
<path d="M760 940 l0 -50 115 0 115 0 0 50 0 50 -115 0 -115 0 0 -50z m200 0
c0 -18 -7 -20 -85 -20 -78 0 -85 2 -85 20 0 18 7 20 85 20 78 0 85 -2 85 -20z"/>
<path d="M760 835 c0 -12 13 -15 55 -15 42 0 55 3 55 15 0 12 -13 15 -55 15
-42 0 -55 -3 -55 -15z"/>
<path d="M900 768 l0 -83 50 0 50 0 0 83 0 82 -50 0 -50 0 0 -82z m70 2 c0
-43 -3 -50 -20 -50 -17 0 -20 7 -20 50 0 43 3 50 20 50 17 0 20 -7 20 -50z"/>
<path d="M760 767 c0 -16 7 -18 53 -15 35 2 52 7 52 16 0 10 -16 14 -52 16
-45 1 -53 -1 -53 -17z"/>
<path d="M760 701 c0 -17 7 -19 52 -17 41 1 54 5 56 19 3 14 -5 17 -52 17 -49
0 -56 -3 -56 -19z"/>
<path d="M1380 903 c-8 -3 -23 -12 -32 -21 -16 -14 -18 -13 -18 1 0 10 -8 17
-20 17 -19 0 -20 -7 -20 -110 l0 -110 25 0 c25 0 25 1 25 78 0 84 14 112 56
112 36 0 44 -20 44 -107 0 -82 0 -83 25 -83 25 0 25 1 25 89 0 70 -4 93 -17
110 -19 22 -67 34 -93 24z"/>
<path d="M1605 901 c-36 -15 -58 -49 -62 -98 -5 -64 21 -108 74 -122 53 -14
107 -1 111 26 3 19 1 20 -38 10 -49 -14 -93 5 -98 41 -3 21 0 22 72 22 74 0
76 1 76 25 0 74 -69 123 -135 96z m72 -43 c30 -39 24 -48 -32 -48 -41 0 -55 4
-55 14 0 37 65 62 87 34z"/>
<path d="M2064 902 c-18 -2 -24 -16 -39 -85 -9 -45 -18 -86 -20 -92 -4 -13 -9
4 -31 98 -17 73 -19 77 -45 77 -25 0 -29 -6 -44 -57 -10 -32 -19 -73 -22 -91
-7 -41 -13 -35 -24 24 -19 103 -28 124 -53 124 l-23 0 30 -110 c29 -106 31
-110 58 -110 25 0 28 5 48 83 12 45 24 87 25 92 5 13 10 -3 32 -97 17 -74 19
-78 45 -78 30 0 30 -1 69 143 12 44 20 80 18 81 -2 1 -12 0 -24 -2z"/>
<path d="M2154 896 c-62 -28 -49 -87 26 -118 41 -17 50 -25 48 -42 -2 -17 -10
-21 -43 -20 -22 0 -48 4 -58 9 -16 6 -18 4 -15 -16 7 -54 143 -42 162 14 14
39 1 57 -62 87 -70 32 -68 56 5 53 37 -2 53 2 57 12 7 18 -1 23 -50 30 -23 3
-51 0 -70 -9z"/>
</g>
</svg>
